<?xml version="1.0" encoding="UTF-8"?>
<svg version="1.1" xmlns="http://www.w3.org/2000/svg" width="225" height="225">
<path d="M0 0 C74.25 0 148.5 0 225 0 C225 74.25 225 148.5 225 225 C150.75 225 76.5 225 0 225 C0 150.75 0 76.5 0 0 Z " fill="#020280" transform="translate(0,0)"/>
<path d="M0 0 C74.25 0 148.5 0 225 0 C225 74.25 225 148.5 225 225 C150.75 225 76.5 225 0 225 C0 150.75 0 76.5 0 0 Z M16 43 C14.62427577 45.75144847 14.84732345 48.11138397 14.75 51.1875 C14.0501343 62.0187549 10.06691325 71.48667703 5.98046875 81.4609375 C1.83072635 91.93214337 1.83072635 91.93214337 1 103 C3 106 3 106 6 108 C9.20352299 108.37688506 11.11138291 108.44430855 14 107 C14.00808685 108.31243179 14.01617371 109.62486359 14.02450562 110.97706604 C14.10202225 123.3512501 14.18977569 135.72532495 14.28752708 148.09936619 C14.33745252 154.46083461 14.3837831 160.82228673 14.421875 167.18383789 C14.4587749 173.32416596 14.50514803 179.46435637 14.55806351 185.60456657 C14.57658238 187.94606039 14.59169957 190.28758369 14.60334396 192.62912178 C14.62024904 195.91117545 14.64929507 199.1929156 14.68115234 202.47485352 C14.68331253 203.44086487 14.68547272 204.40687622 14.68769836 205.40216064 C14.6774136 214.44411734 14.6774136 214.44411734 19 222 C21.20747045 222.2982616 21.20747045 222.2982616 23.7961731 222.24050903 C25.31484482 222.24463303 25.31484482 222.24463303 26.86419678 222.24884033 C27.97909485 222.24164978 29.09399292 222.23445923 30.24267578 222.22705078 C31.4133963 222.22734283 32.58411682 222.22763489 33.79031372 222.22793579 C37.00503797 222.22677919 40.21958929 222.21673198 43.43427896 222.20278788 C46.79218708 222.19030592 50.15009839 222.18911203 53.50802612 222.18673706 C59.86870017 222.18051481 66.22930566 222.16409398 72.58994949 222.14403808 C80.54042193 222.11951213 88.49090544 222.1085474 96.44140625 222.09765625 C110.6276576 222.07816285 124.81375932 222.03810091 139 222 C139 193.29 139 164.58 139 135 C153.85 135 168.7 135 184 135 C184 163.71 184 192.42 184 222 C190.93 222 197.86 222 205 222 C209.31434712 217.68565288 209.81671635 216.40551329 210.12304783 210.7137022 C210.12166514 209.53703346 210.12166514 209.53703346 210.12025452 208.33659363 C210.12162918 207.42940582 210.12300385 206.52221802 210.12442017 205.58753967 C210.12082489 204.60498703 210.11722961 203.62243439 210.11352539 202.61010742 C210.11374443 201.04356415 210.11374443 201.04356415 210.1139679 199.44537354 C210.11327209 195.99871737 210.10549518 192.55211546 210.09765625 189.10546875 C210.09579089 186.71364878 210.09436754 184.32182842 210.09336853 181.93000793 C210.08955264 175.63850853 210.07973024 169.34703226 210.06866455 163.05554199 C210.05843051 156.63403639 210.05386664 150.21252704 210.04882812 143.79101562 C210.03810716 131.19400056 210.0212344 118.59700151 210 106 C210.99 106.66 211.98 107.32 213 108 C216.83693587 108.41857482 219.11203064 108.54644269 222.4375 106.5 C224.59744773 103.04408363 224.39903123 99.93421841 224 96 C223.27453511 92.89728435 222.26281605 89.93465749 221.1875 86.9375 C220.92646484 86.17373047 220.66542969 85.40996094 220.39648438 84.62304688 C219.18716833 81.13245315 217.90348836 77.70024345 216.4296875 74.3125 C212.64808204 65.55074746 210.48082593 56.88688542 209.94702148 47.38110352 C209.66657644 44.00688008 209.2829956 42.29702019 206.92061615 39.81756687 C203.35883451 37.60098791 200.55158473 37.43705305 196.48498535 37.4853363 C195.73695097 37.47839078 194.9889166 37.47144525 194.21821451 37.46428925 C191.71613501 37.44601874 189.21500363 37.45628316 186.71289062 37.46655273 C184.91732575 37.45949431 183.12176683 37.45074961 181.32621765 37.44044495 C176.45226909 37.4179339 171.578645 37.42089449 166.70466423 37.42976642 C162.63637983 37.43487421 158.56815651 37.42758552 154.49987841 37.42029434 C144.90367328 37.40329026 135.30762716 37.40686678 125.71142578 37.42358398 C115.80866498 37.44051202 105.90634476 37.42466251 96.00363207 37.3923611 C87.50242871 37.36568094 79.00136262 37.35838477 70.50012159 37.36687618 C65.42220754 37.37180924 60.34455871 37.3695691 55.26667786 37.34908867 C50.49274073 37.33075588 45.7194385 37.33666073 40.94553566 37.36128807 C39.19317251 37.36630333 37.44076119 37.36278766 35.68843651 37.35013962 C33.2965631 37.33424054 30.90678853 37.34912724 28.51501465 37.37181091 C27.82094592 37.35997518 27.12687718 37.34813946 26.41177607 37.33594507 C21.27546586 37.43496751 19.17502369 39.07715284 16 43 Z " fill="#F8F8FB" transform="translate(0,0)"/>
<path d="M0 0 C0.33 0 0.66 0 1 0 C1 40.26 1 80.52 1 122 C-27.71 122 -56.42 122 -86 122 C-85.505 121.01 -85.505 121.01 -85 120 C-84.87741736 117.25471169 -84.81428213 114.53313968 -84.79467773 111.78662109 C-84.78477814 110.9377684 -84.77487854 110.08891571 -84.76467896 109.21434021 C-84.73302083 106.40073462 -84.70828951 103.58711212 -84.68359375 100.7734375 C-84.66302794 98.82572992 -84.64203157 96.87802684 -84.62062073 94.93032837 C-84.56536148 89.7978479 -84.51596921 84.66532689 -84.46777344 79.53277588 C-84.40876651 73.37785395 -84.34251738 67.22300628 -84.27747345 61.06814575 C-84.17941547 51.71214243 -84.09059257 42.35609202 -84 33 C-69.81 33 -55.62 33 -41 33 C-41 61.71 -41 90.42 -41 120 C-21.53593621 121.43283327 -21.53593621 121.43283327 -16 115 C-15.02892188 111.77422648 -14.86938066 108.69184898 -14.84178162 105.33659363 C-14.8319928 104.42940582 -14.82220398 103.52221802 -14.81211853 102.58753967 C-14.80636307 101.60498703 -14.8006076 100.62243439 -14.79467773 99.61010742 C-14.78477814 98.56574524 -14.77487854 97.52138306 -14.76467896 96.44537354 C-14.73313091 92.99876155 -14.70833292 89.55213578 -14.68359375 86.10546875 C-14.66301845 83.71364487 -14.64202182 81.32182457 -14.62062073 78.93000793 C-14.5654596 72.63854888 -14.51602401 66.34705733 -14.46777344 60.05554199 C-14.41751493 53.63400383 -14.36185156 47.21251278 -14.30664062 40.79101562 C-14.19913193 28.19405094 -14.09748719 15.59704602 -14 3 C-13.01 3.33 -12.02 3.66 -11 4 C-7.54199641 4.41673207 -7.54199641 4.41673207 -4 4 C-1.62280307 2.12498069 -1.62280307 2.12498069 0 0 Z " fill="#FEFEFE" transform="translate(224,103)"/>
<path d="M0 0 C1.06588373 0.00259945 1.06588373 0.00259945 2.15330046 0.00525141 C2.90693867 -0.00069084 3.66057688 -0.00663308 4.43705261 -0.01275539 C6.97582894 -0.03017238 9.51441715 -0.0331494 12.05324858 -0.03613043 C13.86807205 -0.04538379 15.6828916 -0.05543271 17.49770659 -0.06622076 C22.43784745 -0.09250238 27.3779339 -0.10536522 32.31813377 -0.11424208 C35.40271493 -0.12009831 38.48728112 -0.12830692 41.57185477 -0.13725042 C51.21741096 -0.16460955 60.86293306 -0.18393817 70.50852537 -0.19165421 C81.65293856 -0.20061748 92.79686135 -0.23571831 103.94112539 -0.2936554 C112.54840159 -0.33685374 121.15553964 -0.35706086 129.76292312 -0.35973644 C134.90692565 -0.36183516 140.0504675 -0.37370441 145.19435614 -0.40937567 C150.03311726 -0.44227707 154.87107 -0.44667875 159.70990294 -0.42909765 C161.48647713 -0.42755358 163.26309422 -0.43628661 165.03955954 -0.45601416 C167.46467148 -0.48136665 169.88690129 -0.46975756 172.31199187 -0.44885015 C173.01588886 -0.46496296 173.71978585 -0.48107577 174.44501305 -0.49767685 C177.191078 -0.44226495 179.31512394 -0.21142962 181.47854763 1.55904341 C184.67343276 5.2122733 185.62794973 7.91220001 185.61062163 12.7236352 C185.63511382 13.79484613 185.65960601 14.86605707 185.68484038 15.96972895 C184.58673146 20.75072626 183.15331008 23.61214198 178.92312163 26.2861352 C173.13818303 27.37274163 167.39108305 27.23327732 161.52248687 27.17602777 C159.72676659 27.18387911 157.93105727 27.19472279 156.13537139 27.20833063 C151.26534804 27.23595157 146.3963883 27.2194962 141.52639192 27.19348216 C136.4291308 27.17202667 131.33194357 27.18554187 126.23466033 27.19377375 C117.67597183 27.20193162 109.11771034 27.18127424 100.55910796 27.14380121 C90.66360607 27.1008511 80.76894097 27.10441281 70.8734051 27.13266879 C61.35322714 27.15869789 51.83336018 27.15089014 42.31318396 27.12796831 C38.26177276 27.11886664 34.21063423 27.12181788 30.15923423 27.13447237 C25.3892305 27.14790777 20.62021854 27.13179533 15.85036391 27.09283495 C14.09963496 27.08330125 12.34881636 27.08397458 10.59809989 27.09557581 C8.20808813 27.10972755 5.82117955 27.08695318 3.43140715 27.05476618 C2.73802054 27.06746839 2.04463393 27.0801706 1.3302356 27.09325773 C-1.39354877 27.02444264 -3.48536622 26.77877896 -5.61546391 25.00471675 C-9.87941092 20.08337825 -10.35797463 15.96647423 -10.30344087 9.7314477 C-9.70746561 3.29902513 -6.19837106 0.07378848 0 0 Z " fill="#010180" transform="translate(25.076878368854523,2.713864803314209)"/>
<path d="M0 0 C1.24132187 0.00222061 2.48264374 0.00444122 3.76158142 0.00672913 C4.44447739 0.0065831 5.12737335 0.00643707 5.83096313 0.00628662 C8.09815092 0.00698575 10.36525752 0.01477811 12.63243103 0.02259827 C14.20041865 0.02446245 15.76840685 0.02588635 17.33639526 0.02688599 C21.47103981 0.03071117 25.60564944 0.04054146 29.74028015 0.05158997 C34.69703195 0.0635987 39.65379539 0.06820632 44.61055756 0.07404327 C52.14782094 0.08375322 59.68500766 0.10290974 67.22227478 0.12025452 C67.22227478 20.91025452 67.22227478 41.70025452 67.22227478 63.12025452 C43.79227478 63.12025452 20.36227478 63.12025452 -3.77772522 63.12025452 C-3.79835022 52.91087952 -3.81897522 42.70150452 -3.84022522 32.18275452 C-3.84932922 28.95502258 -3.85843323 25.72729065 -3.86781311 22.40174866 C-3.87073198 19.86130312 -3.87328061 17.32085711 -3.87538147 14.78041077 C-3.87799484 14.11617599 -3.88060822 13.45194122 -3.88330078 12.76757812 C-3.8905821 10.82012594 -3.89106362 8.87265194 -3.89125061 6.92518616 C-3.89347122 5.82598343 -3.89569183 4.7267807 -3.89797974 3.5942688 C-3.72720364 0.0808665 -3.54455801 0.15345258 0 0 Z " fill="#F8F8FB" transform="translate(45.77772521972656,133.87974548339844)"/>
<path d="M0 0 C1.98 1.65 3.96 3.3 6 5 C9.54843366 5.41746278 11.61670875 5.12776375 15 4 C15.00331015 4.54499681 15.00662029 5.08999361 15.01003075 5.65150547 C15.09135963 18.93126655 15.18360781 32.21091345 15.28752708 45.49051762 C15.33745389 51.9125204 15.38378446 58.33450703 15.421875 64.7565918 C15.45877316 70.95527378 15.50514583 77.15381937 15.55806351 83.35238457 C15.5765833 85.7162073 15.59170015 88.08005925 15.60334396 90.44392586 C15.62024746 93.75711126 15.64929313 97.06998593 15.68115234 100.38305664 C15.68331253 101.35841873 15.68547272 102.33378082 15.68769836 103.33869934 C15.53820887 111.73009597 15.53820887 111.73009597 19 119 C20.55578596 119.10802157 22.11642858 119.14683525 23.67591858 119.15821838 C24.68699173 119.1680072 25.69806488 119.17779602 26.73977661 119.18788147 C27.85826996 119.19363693 28.97676331 119.1993924 30.12915039 119.20532227 C31.29972488 119.21522186 32.47029938 119.22512146 33.67634583 119.23532104 C36.89517929 119.26157055 40.11400725 119.28340702 43.33288503 119.30332303 C46.69350344 119.32514571 50.05407607 119.35255253 53.41465759 119.37937927 C59.7823902 119.4293566 66.15014815 119.47427665 72.51793045 119.51740164 C80.47618052 119.57156645 88.43437736 119.63244276 96.39257812 119.69335938 C110.59501127 119.80204313 124.79749267 119.90053377 139 120 C139 91.29 139 62.58 139 33 C153.85 33 168.7 33 184 33 C184 61.71 184 90.42 184 120 C190.6 120 197.2 120 204 120 C204 120.33 204 120.66 204 121 C197.07 121 190.14 121 183 121 C183 92.29 183 63.58 183 34 C168.81 34 154.62 34 140 34 C140.02320313 40.25710937 140.04640625 46.51421875 140.0703125 52.9609375 C140.08052734 56.91667079 140.09015496 60.87238791 140.09765625 64.828125 C140.1096281 71.11168785 140.12381527 77.39519261 140.15087891 83.67871094 C140.17255395 88.74261742 140.18455732 93.80646164 140.18975449 98.87041092 C140.19345987 100.80578212 140.20069519 102.74114979 140.21146011 104.6764946 C140.22590414 107.37994597 140.22798093 110.08313756 140.22705078 112.78662109 C140.23424133 113.59294479 140.24143188 114.39926849 140.24884033 115.23002625 C140.22810432 120.77189568 140.22810432 120.77189568 138 123 C135.5987072 123.24609566 135.5987072 123.24609566 132.52047729 123.24050903 C130.77462341 123.24463303 130.77462341 123.24463303 128.99349976 123.24884033 C127.71028839 123.24164978 126.42707703 123.23445923 125.10498047 123.22705078 C123.74509693 123.22648686 122.38521278 123.22680285 121.02532959 123.22793579 C117.32716584 123.22851106 113.62913107 123.21672877 109.93099737 123.20278788 C106.06859835 123.19030937 102.20619658 123.1891123 98.34378052 123.18673706 C91.02687967 123.1805138 83.71003839 123.16409158 76.3931638 123.14403808 C66.5079025 123.11753182 56.62262498 123.10671327 46.73733711 123.09503365 C31.1581801 123.07621155 15.5791488 123.03637155 0 123 C0 82.41 0 41.82 0 0 Z " fill="#ECECF5" transform="translate(0,102)"/>
<path d="M0 0 C7.26 0 14.52 0 22 0 C22 7.87617066 22 7.87617066 21.1953125 11.33984375 C21.02386719 12.09330078 20.85242188 12.84675781 20.67578125 13.62304688 C20.49402344 14.38681641 20.31226562 15.15058594 20.125 15.9375 C19.86396484 17.07735352 19.86396484 17.07735352 19.59765625 18.24023438 C18.74165312 21.95275164 17.83704287 25.64940928 16.890625 29.33984375 C15.92099676 32.9656769 15.92099676 32.9656769 15.625 36.625 C14.88848842 40.60216252 13.49456189 42.8451129 11 46 C6.54806278 48.96795815 2.22190854 48.63458039 -3 48 C-6.45658479 45.95426614 -7.7785359 44.33219615 -10 41 C-10.97201705 34.55347891 -9.34476505 28.78884414 -7.25 22.75 C-6.70008706 21.09259178 -6.15061008 19.43503884 -5.6015625 17.77734375 C-5.32989258 16.97151855 -5.05822266 16.16569336 -4.77832031 15.33544922 C-3.67033948 12.01081162 -2.64578643 8.66493888 -1.625 5.3125 C-1.08875 3.559375 -0.5525 1.80625 0 0 Z " fill="#F5F5FA" transform="translate(27,64)"/>
<path d="M0 0 C7.26 0 14.52 0 22 0 C24.24807692 8.99230769 24.24807692 8.99230769 24.59765625 12.578125 C24.67693359 13.34640625 24.75621094 14.1146875 24.83789062 14.90625 C24.91201172 15.6796875 24.98613281 16.453125 25.0625 17.25 C25.21750282 18.81796244 25.3749701 20.38568362 25.53515625 21.953125 C25.600979 22.63536133 25.66680176 23.31759766 25.73461914 24.02050781 C26.00914769 26.06823321 26.49007385 27.99967888 27 30 C27.38193464 34.51711156 27.54039319 38.61899519 25.875 42.875 C22.71161118 46.460174 19.77313787 48.70447702 15 49.5 C10.46009772 48.74334962 7.41698934 46.61005845 4.39453125 43.17578125 C1.8455985 39.19887498 1.63153008 34.60895514 1 30 C0.82984375 28.76443359 0.82984375 28.76443359 0.65625 27.50390625 C-0.36930122 18.37365164 -0.06504428 9.17124369 0 0 Z " fill="#F4F4F9" transform="translate(139,64)"/>
<path d="M0 0 C7.26 0 14.52 0 22 0 C24.76916922 7.13593607 27.08822542 14.34708858 29.25 21.6875 C29.52021973 22.57783936 29.79043945 23.46817871 30.06884766 24.38549805 C31.8608851 30.58387322 33.48260285 36.66414358 30.75 42.8125 C28.28002946 45.89996317 26.36372142 47.77440674 22.37890625 48.43359375 C21.44949219 48.43488281 20.52007812 48.43617187 19.5625 48.4375 C18.63566406 48.45683594 17.70882812 48.47617188 16.75390625 48.49609375 C13.10760134 47.83924166 11.64194995 46.59355301 9 44 C8.02939849 41.50293048 7.3626189 39.35988154 6.796875 36.77734375 C6.62875305 36.07662247 6.4606311 35.37590118 6.28741455 34.65394592 C5.93587455 33.17252496 5.59349931 31.68890281 5.25976562 30.20336914 C4.75602102 27.96426295 4.22453892 25.73328072 3.6875 23.50195312 C1.83650515 15.66211758 0.48235707 8.06529391 0 0 Z " fill="#F6F6FA" transform="translate(176,64)"/>
<path d="M0 0 C7.26 0 14.52 0 22 0 C21.690625 2.743125 21.38125 5.48625 21.0625 8.3125 C20.20070204 16.09595372 19.66566922 23.84791374 19.51782227 31.67895508 C19.35441384 36.48358033 18.61154718 39.8190134 16 44 C10.57086339 48.89946474 10.57086339 48.89946474 7.046875 49.125 C2.71107785 48.88903825 -0.36958919 48.32860613 -3.5625 45.25 C-9.12093233 37.57627536 -5.91720138 26.43231155 -4.6875 17.6875 C-4.57027588 16.8519458 -4.45305176 16.0163916 -4.33227539 15.15551758 C-4.2058667 14.34493896 -4.07945801 13.53436035 -3.94921875 12.69921875 C-3.83924561 11.98596436 -3.72927246 11.27270996 -3.6159668 10.5378418 C-2.74004511 6.92896114 -1.3039525 3.47720668 0 0 Z " fill="#F6F6FA" transform="translate(65,64)"/>
<path d="M0 0 C7.59 0 15.18 0 23 0 C23.37132358 7.33364065 23.71559456 14.66305962 24 22 C24.03689941 22.89493164 24.07379883 23.78986328 24.11181641 24.71191406 C24.20267551 27.14134662 24.26313753 29.56941241 24.3125 32 C24.34214844 32.72171387 24.37179688 33.44342773 24.40234375 34.18701172 C24.46016204 39.27622615 23.2806547 42.13905436 20 46 C15.82260772 48.89979947 10.88691458 48.78412406 6 48 C2.60462892 45.45347169 0.56419649 42.91393659 -1 39 C-2.0422025 26.21093885 -0.5771292 12.76898351 0 0 Z " fill="#F9F9FB" transform="translate(101,64)"/>
</svg>
